<svg width="60" height="60" xmlns="http://www.w3.org/2000/svg" xmlns:xlink="http://www.w3.org/1999/xlink" xml:space="preserve" overflow="hidden"><g transform="translate(-128 -60)"><g><g><g><g><path d="M179.256 98.7969C178.949 96.9531 177.966 95.2937 176.491 94.126 174.647 92.7125 172.68 91.5448 170.529 90.7458 171.205 88.9635 170.406 86.9354 168.685 86.075 173.172 79.9292 171.82 71.2635 165.674 66.7771 159.528 62.2906 150.863 63.6427 146.376 69.7885 142.811 74.6438 142.811 81.2198 146.376 86.075 144.655 86.9969 143.918 89.025 144.594 90.8073 142.504 91.7292 140.476 92.8354 138.632 94.126 137.096 95.2937 136.113 96.9531 135.805 98.8583L134.699 112.318 135.682 112.625C135.99 112.686 144.286 115.083 157.5 115.083 170.714 115.083 179.01 112.686 179.379 112.564L180.363 112.256 179.318 98.8583 179.256 98.7969ZM147.421 90.6229C146.745 90.2542 146.56 89.3938 146.929 88.7177 147.175 88.2875 147.605 88.0417 148.097 88.0417 153.382 92.9583 161.556 92.9583 166.842 88.0417 166.965 88.0417 167.087 88.0417 167.149 88.1031 167.886 88.2875 168.317 89.025 168.132 89.7625 168.071 90.1312 167.825 90.4385 167.518 90.6229 165.121 92.0979 161.433 92.9583 157.5 92.9583 153.567 92.9583 149.941 92.0979 147.421 90.6229ZM164.875 81.2812C164.875 82.1417 164.752 82.9406 164.445 83.7396L161.741 83.7396C161.495 83.3708 161.126 83.125 160.696 83.125L159.467 83.125C158.791 83.125 158.238 83.6781 158.238 84.3542 158.238 85.0302 158.791 85.5833 159.467 85.5833L160.696 85.5833C161.126 85.5833 161.556 85.3375 161.741 84.9688L163.892 84.9688C161.864 88.4719 157.377 89.701 153.812 87.6729 151.539 86.3823 150.125 83.924 150.125 81.2812L150.125 74.275C152.399 73.1687 154.98 72.6156 157.5 72.6771 160.02 72.6156 162.601 73.1687 164.875 74.275L164.875 81.2812ZM157.5 66.5312C161.986 66.5312 166.043 69.174 167.886 73.2302 165.428 71.3865 161.741 70.2188 157.5 70.2188 153.259 70.2188 149.572 71.3865 147.114 73.2302 148.957 69.174 153.014 66.5312 157.5 66.5312ZM170.898 111.703 170.406 107.585C170.345 106.909 169.73 106.418 169.054 106.541 168.378 106.602 167.886 107.217 168.009 107.893L168.501 112.072C164.814 112.441 161.188 112.625 157.5 112.625 153.812 112.625 150.186 112.441 146.499 112.01L146.991 107.831C147.052 107.155 146.622 106.541 145.946 106.479 145.27 106.418 144.655 106.848 144.594 107.524L144.102 111.703C140.845 111.273 138.509 110.72 137.342 110.474L138.264 99.1656C138.386 98.4281 138.632 97.7521 139.062 97.199L142.197 99.9031 144.594 97.076 142.012 94.8635C143.365 94.0646 144.778 93.3271 146.253 92.774 149.08 94.4333 153.198 95.4167 157.5 95.4167 161.864 95.4167 165.981 94.4333 168.87 92.7125 170.345 93.2656 171.758 93.9417 173.11 94.8021L170.406 97.076 172.803 99.9031 175.938 97.199C176.368 97.8135 176.614 98.4896 176.736 99.1656L177.658 110.474C176.491 110.781 174.155 111.273 170.898 111.703Z" fill="#000000" fill-rule="nonzero" fill-opacity="1"/><path d="M162.417 98.4896 152.583 98.4896C151.231 98.4896 150.125 99.5958 150.125 100.948L150.125 105.865C150.125 107.217 151.231 108.323 152.583 108.323L162.417 108.323C163.769 108.323 164.875 107.217 164.875 105.865L164.875 100.948C164.875 99.5958 163.769 98.4896 162.417 98.4896ZM152.583 105.865 152.583 100.948 162.417 100.948 162.417 105.865 152.583 105.865Z" fill="#000000" fill-rule="nonzero" fill-opacity="1"/><path d="M132.425 83.125C132.056 84.4771 131.134 85.5833 129.844 86.1979 131.073 86.8125 132.056 87.9187 132.425 89.2708 132.794 87.9187 133.716 86.8125 135.006 86.1979 133.716 85.5833 132.794 84.4771 132.425 83.125Z" fill="#000000" fill-rule="nonzero" fill-opacity="1"/><path d="M138.94 66.5312C138.571 67.8833 137.649 68.9896 136.358 69.6042 137.587 70.2188 138.571 71.325 138.94 72.6771 139.308 71.325 140.23 70.2188 141.521 69.6042 140.292 68.9896 139.308 67.8833 138.94 66.5312Z" fill="#000000" fill-rule="nonzero" fill-opacity="1"/><path d="M179.502 80.1135C179.133 81.4656 178.211 82.5719 176.921 83.1865 178.15 83.801 179.133 84.9073 179.502 86.2594 179.871 84.9073 180.793 83.801 182.083 83.1865 180.854 82.5719 179.871 81.4656 179.502 80.1135Z" fill="#000000" fill-rule="nonzero" fill-opacity="1"/></g></g></g></g></g></svg>